<svg width="48" height="48" viewBox="0 0 48 48" fill="none" xmlns="http://www.w3.org/2000/svg">
<g clip-path="url(#clip0_113_2)">
<path d="M0 0H48V48H0V0Z" fill="white" fill-opacity="0.01"/>
<path d="M19.4545 26.4444C17.6364 28.2222 15.8182 30 12.1818 30C8.54545 30 4 27.3333 4 22C4 16.6667 8.54545 14 12.1818 14C17.6364 14 20.3636 17.5556 24 22C27.6364 26.4444 30.3636 30 35.8182 30C39.4545 30 44 27.3333 44 22C44 16.6667 39.4545 14 35.8182 14C32.1818 14 29.4545 16.6667 28.5455 17.5556" stroke="url(#paint0_linear_113_2)" stroke-width="4" stroke-linecap="round" stroke-linejoin="round"/>
</g>
<defs>
<linearGradient id="paint0_linear_113_2" x1="38" y1="22" x2="4" y2="22" gradientUnits="userSpaceOnUse">
<stop stop-color="#4AB7E0"/>
<stop offset="1" stop-color="#B3EAFF"/>
</linearGradient>
<clipPath id="clip0_113_2">
<rect width="48" height="48" fill="white"/>
</clipPath>
</defs>
</svg>
