<svg width="20" height="20" viewBox="0 0 20 20" fill="none" xmlns="http://www.w3.org/2000/svg">
	<defs>
		<linearGradient id="paint0_linear_113_12" x1="16.7158" y1="9.5" x2="6.73422" y2="9.73679" gradientUnits="userSpaceOnUse">
			<stop offset="0.126721" stop-color="#4AB7E0" />
			<stop offset="1" stop-color="#4AB7E0" stop-opacity="0" />
		</linearGradient>
		<linearGradient id="paint1_linear_113_12" x1="10.5422" y1="10.2138" x2="2.1585" y2="12.7011" gradientUnits="userSpaceOnUse">
			<stop offset="0.126721" stop-color="#4AB7E0" />
			<stop offset="1" stop-color="#4AB7E0" stop-opacity="0" />
		</linearGradient>
		<linearGradient id="paint2_linear_113_12" x1="3.54537" y1="9.96405" x2="0.115534" y2="10.0341" gradientUnits="userSpaceOnUse">
			<stop offset="0.126721" stop-color="#4AB7E0" />
			<stop offset="1" stop-color="#4AB7E0" stop-opacity="0" />
		</linearGradient>
	</defs>
	<path d="M13.4886 20.54H13.3586C8.91855 20.54 6.77855 18.79 6.40855 14.87C6.36855 14.46 6.66855 14.09 7.08855 14.05C7.48855 14.01 7.86855 14.32 7.90855 14.73C8.19855 17.87 9.67855 19.04 13.3685 19.04H13.4985C17.5685 19.04 19.0085 17.6 19.0085 13.53V7.01C19.0085 2.94 17.5685 1.5 13.4985 1.5H13.3685C9.65855 1.5 8.17855 2.69 7.90855 5.89C7.85855 6.3 7.50855 6.61 7.08855 6.57C6.66855 6.54 6.36855 6.17 6.39855 5.76C6.73855 1.78 8.88855 0 13.3586 0H13.4886C18.3986 0 20.4985 2.1 20.4985 7.01V13.53C20.4985 18.44 18.3986 20.54 13.4886 20.54Z" fill="url(#paint0_linear_113_12)" />
	<path d="M13.2471 11.02H1.86719C1.45719 11.02 1.11719 10.68 1.11719 10.27C1.11719 9.86002 1.45719 9.52002 1.86719 9.52002H13.2471C13.6571 9.52002 13.9971 9.86002 13.9971 10.27C13.9971 10.68 13.6571 11.02 13.2471 11.02Z" fill="url(#paint1_linear_113_12)" />
	<path d="M4.0975 14.3701C3.9075 14.3701 3.7175 14.3001 3.5675 14.1501L0.2175 10.8001C-0.0725 10.5101 -0.0725 10.0301 0.2175 9.74012L3.5675 6.39011C3.8575 6.10011 4.3375 6.10011 4.6275 6.39011C4.9175 6.68011 4.9175 7.16011 4.6275 7.45011L1.8075 10.2701L4.6275 13.0901C4.9175 13.3801 4.9175 13.8601 4.6275 14.1501C4.4875 14.3001 4.2875 14.3701 4.0975 14.3701Z" fill="url(#paint2_linear_113_12)" />
</svg>
