<svg fill="none" height="24" viewBox="0 0 24 24" width="24" xmlns="http://www.w3.org/2000/svg"><g stroke="#000" stroke-linecap="round" stroke-linejoin="round" stroke-width="2"><path d="m12.3951 18.2179-.2292 2.3688c-.0922.9521-.9805 1.598-1.8787 1.3659-1.35152-.3492-2.29966-1.6042-2.29966-3.044v-3.0348c0-.675 0-1.0125-.14657-1.2607-.08291-.1404-.19703-.2583-.33287-.344-.24013-.1515-.56669-.1515-1.21982-.1515h-.39631c-1.70279 0-2.55418 0-3.07841-.3905-.39211-.292-.66873-.7208-.77878-1.2072-.14713-.6503.18033-1.4625.83525-3.08697l.32651-.80987c.18857-.46773.26574-.97541.22503-1.48036-.23169-2.87333 2.04777-5.29514 4.83335-5.1352l10.42438.59852c1.1384.06536 1.7076.09804 2.2221.55322s.6113.92382.8049 1.8611c.1651.79892.2937 1.77843.2937 2.89087 0 1.23378-.1582 2.30409-.3488 3.14579-.2828 1.2485-1.4754 1.9199-2.7065 1.7608-3.2636-.4216-6.2224 2.0179-6.5496 5.4001z"/><path d="m17 12.5.137-.4566c.887-2.95663.8391-6.11502-.137-9.0434"/></g></svg>